<svg version="1.0" xmlns="http://www.w3.org/2000/svg"
 width="40px" height="40px" viewBox="0 0 200.000000 200.000000"
 preserveAspectRatio="xMidYMid meet">

<g transform="translate(0.000000,200.000000) scale(0.100000,-0.100000)"
fill="#000000" stroke="none">
<path d="M884 1821 c-31 -14 -100 -99 -129 -158 -18 -38 -35 -58 -62 -72 -21
-11 -32 -20 -25 -21 29 -1 11 -22 -97 -116 -40 -36 -68 -80 -57 -92 3 -3 13 1
21 8 14 12 15 10 9 -16 -9 -37 -71 -133 -90 -141 -7 -3 -11 -9 -8 -15 3 -5 12
-7 20 -4 20 8 18 -34 -3 -63 -16 -23 -16 -24 5 -19 16 4 27 0 37 -15 8 -11 16
-19 17 -16 2 2 13 25 26 52 20 43 25 47 57 47 27 0 35 -4 35 -17 1 -17 1 -17
11 0 6 10 22 17 40 17 l30 0 -20 -26 c-12 -15 -21 -31 -21 -36 0 -6 -9 -23
-21 -39 -18 -26 -26 -29 -79 -29 -63 0 -93 -7 -85 -20 3 -5 1 -11 -5 -15 -38
-23 23 -32 74 -10 16 7 18 5 13 -8 -4 -9 -10 -24 -13 -33 -20 -47 220 157 269
230 11 15 30 32 44 37 38 14 55 -5 51 -60 -3 -45 -4 -47 -60 -76 -121 -64
-162 -130 -172 -275 -5 -67 -2 -117 8 -170 36 -182 90 -266 216 -331 41 -22
89 -49 106 -60 50 -31 164 -51 220 -39 88 20 162 85 217 191 23 45 58 99 77
122 l34 40 -64 -7 c-44 -5 -83 -17 -119 -37 -29 -17 -55 -28 -58 -26 -7 7 55
126 94 181 l35 49 -39 -6 c-60 -10 -167 -62 -204 -100 -51 -52 -73 -85 -119
-177 -77 -156 -118 -154 -210 9 -19 34 -17 144 3 192 9 19 44 66 80 105 93
101 92 97 92 264 1 141 2 146 29 188 25 40 29 42 44 29 20 -18 122 -54 179
-63 51 -8 116 18 111 43 -3 10 1 30 9 45 14 30 8 58 -13 58 -16 0 -74 -76 -74
-97 0 -18 -7 -17 -43 11 -18 14 -53 34 -79 45 -41 17 -51 28 -79 82 -17 35
-40 75 -51 90 l-20 27 25 54 c40 83 43 138 14 202 -14 30 -36 61 -49 69 -28
19 -154 31 -184 18z"/>
</g>
</svg>
